<mxfile host="app.diagrams.net" agent="Mozilla/5.0 (Windows NT 10.0; Win64; x64) AppleWebKit/537.36 (KHTML, like Gecko) Chrome/136.0.0.0 Safari/537.36" version="27.0.5">
  <diagram name="Page-1" id="Ocms1D6DM9dSpQU_UKje">
    <mxGraphModel dx="1833" dy="518" grid="1" gridSize="10" guides="1" tooltips="1" connect="1" arrows="1" fold="1" page="1" pageScale="1" pageWidth="850" pageHeight="1100" math="0" shadow="0">
      <root>
        <mxCell id="0" />
        <mxCell id="1" parent="0" />
        <mxCell id="7A8-02SXWjBYyT_56dJ7-1" value="&lt;span style=&quot;color: rgba(0, 0, 0, 0.87); font-family: Proxima, sans-serif; font-size: 18.75px; text-align: start; background-color: rgb(238, 238, 238);&quot;&gt;GateKeeper-01&lt;/span&gt;" style="rounded=0;whiteSpace=wrap;html=1;" vertex="1" parent="1">
          <mxGeometry x="160" y="280" width="120" height="80" as="geometry" />
        </mxCell>
        <mxCell id="7A8-02SXWjBYyT_56dJ7-2" value="&lt;span style=&quot;color: rgba(0, 0, 0, 0.87); font-family: Proxima, sans-serif; font-size: 18.75px; text-align: start; background-color: rgb(238, 238, 238);&quot;&gt;GateKeeper-01&lt;/span&gt;" style="rounded=0;whiteSpace=wrap;html=1;" vertex="1" parent="1">
          <mxGeometry x="160" y="440" width="120" height="80" as="geometry" />
        </mxCell>
        <mxCell id="7A8-02SXWjBYyT_56dJ7-3" value="&lt;span style=&quot;color: rgba(0, 0, 0, 0.87); font-family: Proxima, sans-serif; font-size: 18.75px; text-align: start; background-color: rgb(238, 238, 238);&quot;&gt;Analysis-Server-01&amp;nbsp;&lt;/span&gt;&lt;button style=&quot;box-sizing: inherit; background-repeat: no-repeat; padding: 0px; margin: 0px; cursor: pointer; font-style: inherit; font-variant: inherit; font-weight: 500; font-stretch: inherit; font-size: 0.875rem; line-height: inherit; font-family: inherit; font-optical-sizing: inherit; font-size-adjust: inherit; font-kerning: inherit; font-feature-settings: inherit; font-variation-settings: inherit; overflow: visible; appearance: button; text-transform: uppercase; border-style: none; color: rgba(0, 0, 0, 0.54); -webkit-box-align: center; align-items: center; border-radius: 50%; display: inline-flex; -webkit-box-flex: 0; flex: 0 0 auto; letter-spacing: 0.0892857em; -webkit-box-pack: center; justify-content: center; outline: 0px; position: relative; text-indent: 0.0892857em; transition-duration: 0.28s; transition-property: box-shadow, transform, opacity, -webkit-box-shadow, -webkit-transform; transition-timing-function: cubic-bezier(0.4, 0, 0.2, 1); user-select: none; vertical-align: middle; text-wrap-mode: nowrap; min-height: 0px; min-width: 0px; will-change: box-shadow; height: 36px; width: 36px;&quot; class=&quot;v-btn v-btn--flat v-btn--icon v-btn--round theme--light v-size--default&quot; type=&quot;button&quot; data-v-b6278ce4=&quot;&quot;&gt;&lt;span style=&quot;box-sizing: inherit; background-repeat: no-repeat; padding: 0px; margin: 0px; -webkit-box-align: center; align-items: center; color: inherit; display: flex; -webkit-box-flex: 1; flex: 1 0 auto; -webkit-box-pack: inherit; justify-content: inherit; line-height: normal; position: relative;&quot; class=&quot;v-btn__content&quot;&gt;&lt;span style=&quot;box-sizing: inherit; background-repeat: no-repeat; padding: 0px; margin: 0px; font-family: &amp;quot;Material Icons&amp;quot;; font-size: 24px; line-height: 1; letter-spacing: normal; text-transform: none; display: inline-flex; overflow-wrap: normal; direction: ltr; -webkit-font-smoothing: antialiased; color: currentcolor; -webkit-box-align: center; align-items: center; font-feature-settings: &amp;quot;liga&amp;quot;; -webkit-box-pack: center; justify-content: center; position: relative; text-indent: 0px; transition: 0.3s cubic-bezier(0.25, 0.8, 0.5, 1), visibility; vertical-align: middle; user-select: none; height: 24px; width: 24px; caret-color: rgb(67, 160, 71);&quot; class=&quot;v-icon notranslate material-icons theme--light green--text text--darken-1&quot; aria-hidden=&quot;true&quot; data-v-b6278ce4=&quot;&quot;&gt;&lt;br&gt;&lt;/span&gt;&lt;/span&gt;&lt;/button&gt;" style="rounded=0;whiteSpace=wrap;html=1;" vertex="1" parent="1">
          <mxGeometry x="440" y="280" width="120" height="80" as="geometry" />
        </mxCell>
        <mxCell id="7A8-02SXWjBYyT_56dJ7-4" value="&lt;span style=&quot;color: rgba(0, 0, 0, 0.87); font-family: Proxima, sans-serif; font-size: 18.75px; text-align: start; background-color: rgb(238, 238, 238);&quot;&gt;Analysis-Server-01&amp;nbsp;&lt;/span&gt;&lt;button style=&quot;box-sizing: inherit; background-repeat: no-repeat; padding: 0px; margin: 0px; cursor: pointer; font-style: inherit; font-variant: inherit; font-weight: 500; font-stretch: inherit; font-size: 0.875rem; line-height: inherit; font-family: inherit; font-optical-sizing: inherit; font-size-adjust: inherit; font-kerning: inherit; font-feature-settings: inherit; font-variation-settings: inherit; overflow: visible; appearance: button; text-transform: uppercase; border-style: none; color: rgba(0, 0, 0, 0.54); -webkit-box-align: center; align-items: center; border-radius: 50%; display: inline-flex; -webkit-box-flex: 0; flex: 0 0 auto; letter-spacing: 0.0892857em; -webkit-box-pack: center; justify-content: center; outline: 0px; position: relative; text-indent: 0.0892857em; transition-duration: 0.28s; transition-property: box-shadow, transform, opacity, -webkit-box-shadow, -webkit-transform; transition-timing-function: cubic-bezier(0.4, 0, 0.2, 1); user-select: none; vertical-align: middle; text-wrap-mode: nowrap; min-height: 0px; min-width: 0px; will-change: box-shadow; height: 36px; width: 36px;&quot; class=&quot;v-btn v-btn--flat v-btn--icon v-btn--round theme--light v-size--default&quot; type=&quot;button&quot; data-v-b6278ce4=&quot;&quot;&gt;&lt;span style=&quot;box-sizing: inherit; background-repeat: no-repeat; padding: 0px; margin: 0px; -webkit-box-align: center; align-items: center; color: inherit; display: flex; -webkit-box-flex: 1; flex: 1 0 auto; -webkit-box-pack: inherit; justify-content: inherit; line-height: normal; position: relative;&quot; class=&quot;v-btn__content&quot;&gt;&lt;span style=&quot;box-sizing: inherit; background-repeat: no-repeat; padding: 0px; margin: 0px; font-family: &amp;quot;Material Icons&amp;quot;; font-size: 24px; line-height: 1; letter-spacing: normal; text-transform: none; display: inline-flex; overflow-wrap: normal; direction: ltr; -webkit-font-smoothing: antialiased; color: currentcolor; -webkit-box-align: center; align-items: center; font-feature-settings: &amp;quot;liga&amp;quot;; -webkit-box-pack: center; justify-content: center; position: relative; text-indent: 0px; transition: 0.3s cubic-bezier(0.25, 0.8, 0.5, 1), visibility; vertical-align: middle; user-select: none; height: 24px; width: 24px; caret-color: rgb(67, 160, 71);&quot; class=&quot;v-icon notranslate material-icons theme--light green--text text--darken-1&quot; aria-hidden=&quot;true&quot; data-v-b6278ce4=&quot;&quot;&gt;&lt;br&gt;&lt;/span&gt;&lt;div&gt;&lt;br&gt;&lt;/div&gt;&lt;/span&gt;&lt;/button&gt;" style="rounded=0;whiteSpace=wrap;html=1;" vertex="1" parent="1">
          <mxGeometry x="440" y="440" width="120" height="80" as="geometry" />
        </mxCell>
        <mxCell id="7A8-02SXWjBYyT_56dJ7-5" value="" style="endArrow=none;dashed=1;html=1;dashPattern=1 3;strokeWidth=2;rounded=0;" edge="1" parent="1">
          <mxGeometry width="50" height="50" relative="1" as="geometry">
            <mxPoint x="320" y="240" as="sourcePoint" />
            <mxPoint x="120" y="240" as="targetPoint" />
          </mxGeometry>
        </mxCell>
        <mxCell id="7A8-02SXWjBYyT_56dJ7-6" value="" style="endArrow=none;dashed=1;html=1;dashPattern=1 3;strokeWidth=2;rounded=0;" edge="1" parent="1">
          <mxGeometry width="50" height="50" relative="1" as="geometry">
            <mxPoint x="120" y="240" as="sourcePoint" />
            <mxPoint x="320" y="240" as="targetPoint" />
            <Array as="points">
              <mxPoint x="120" y="560" />
              <mxPoint x="320" y="560" />
            </Array>
          </mxGeometry>
        </mxCell>
        <mxCell id="7A8-02SXWjBYyT_56dJ7-7" value="" style="endArrow=none;dashed=1;html=1;dashPattern=1 3;strokeWidth=2;rounded=0;" edge="1" parent="1">
          <mxGeometry width="50" height="50" relative="1" as="geometry">
            <mxPoint x="400" y="240" as="sourcePoint" />
            <mxPoint x="400" y="240" as="targetPoint" />
            <Array as="points">
              <mxPoint x="400" y="560" />
              <mxPoint x="600" y="560" />
              <mxPoint x="600" y="240" />
            </Array>
          </mxGeometry>
        </mxCell>
        <mxCell id="7A8-02SXWjBYyT_56dJ7-8" value="" style="endArrow=none;html=1;rounded=0;fillColor=#d80073;strokeColor=#A50040;" edge="1" parent="1">
          <mxGeometry width="50" height="50" relative="1" as="geometry">
            <mxPoint x="80" y="160" as="sourcePoint" />
            <mxPoint x="800" y="160" as="targetPoint" />
          </mxGeometry>
        </mxCell>
        <mxCell id="7A8-02SXWjBYyT_56dJ7-9" value="" style="endArrow=none;html=1;rounded=0;fillColor=#008a00;strokeColor=#005700;" edge="1" parent="1">
          <mxGeometry width="50" height="50" relative="1" as="geometry">
            <mxPoint x="80" y="640" as="sourcePoint" />
            <mxPoint x="800" y="640" as="targetPoint" />
          </mxGeometry>
        </mxCell>
        <mxCell id="7A8-02SXWjBYyT_56dJ7-10" value="" style="endArrow=none;html=1;rounded=0;entryX=1;entryY=0.25;entryDx=0;entryDy=0;fillColor=#d80073;strokeColor=#A50040;" edge="1" parent="1" target="7A8-02SXWjBYyT_56dJ7-1">
          <mxGeometry width="50" height="50" relative="1" as="geometry">
            <mxPoint x="320" y="160" as="sourcePoint" />
            <mxPoint x="490" y="390" as="targetPoint" />
            <Array as="points">
              <mxPoint x="320" y="300" />
            </Array>
          </mxGeometry>
        </mxCell>
        <mxCell id="7A8-02SXWjBYyT_56dJ7-11" value="" style="endArrow=none;html=1;rounded=0;exitX=1;exitY=0.25;exitDx=0;exitDy=0;fillColor=#d80073;strokeColor=#A50040;" edge="1" parent="1" source="7A8-02SXWjBYyT_56dJ7-3">
          <mxGeometry width="50" height="50" relative="1" as="geometry">
            <mxPoint x="440" y="440" as="sourcePoint" />
            <mxPoint x="600" y="160" as="targetPoint" />
            <Array as="points">
              <mxPoint x="600" y="300" />
            </Array>
          </mxGeometry>
        </mxCell>
        <mxCell id="7A8-02SXWjBYyT_56dJ7-12" value="" style="endArrow=none;html=1;rounded=0;exitX=1;exitY=0.25;exitDx=0;exitDy=0;fillColor=#d80073;strokeColor=#A50040;" edge="1" parent="1" source="7A8-02SXWjBYyT_56dJ7-2">
          <mxGeometry width="50" height="50" relative="1" as="geometry">
            <mxPoint x="440" y="440" as="sourcePoint" />
            <mxPoint x="360" y="160" as="targetPoint" />
            <Array as="points">
              <mxPoint x="360" y="460" />
            </Array>
          </mxGeometry>
        </mxCell>
        <mxCell id="7A8-02SXWjBYyT_56dJ7-13" value="" style="endArrow=none;html=1;rounded=0;exitX=1;exitY=0.25;exitDx=0;exitDy=0;fillColor=#d80073;strokeColor=#A50040;" edge="1" parent="1" source="7A8-02SXWjBYyT_56dJ7-4">
          <mxGeometry width="50" height="50" relative="1" as="geometry">
            <mxPoint x="440" y="440" as="sourcePoint" />
            <mxPoint x="640" y="160" as="targetPoint" />
            <Array as="points">
              <mxPoint x="640" y="460" />
            </Array>
          </mxGeometry>
        </mxCell>
        <mxCell id="7A8-02SXWjBYyT_56dJ7-14" value="" style="endArrow=none;html=1;rounded=0;entryX=1;entryY=0.75;entryDx=0;entryDy=0;fillColor=#008a00;strokeColor=#005700;" edge="1" parent="1" target="7A8-02SXWjBYyT_56dJ7-1">
          <mxGeometry width="50" height="50" relative="1" as="geometry">
            <mxPoint x="320" y="640" as="sourcePoint" />
            <mxPoint x="490" y="460" as="targetPoint" />
            <Array as="points">
              <mxPoint x="320" y="340" />
            </Array>
          </mxGeometry>
        </mxCell>
        <mxCell id="7A8-02SXWjBYyT_56dJ7-15" value="" style="endArrow=none;html=1;rounded=0;exitX=1;exitY=0.75;exitDx=0;exitDy=0;fillColor=#008a00;strokeColor=#005700;" edge="1" parent="1" source="7A8-02SXWjBYyT_56dJ7-2">
          <mxGeometry width="50" height="50" relative="1" as="geometry">
            <mxPoint x="440" y="510" as="sourcePoint" />
            <mxPoint x="360" y="640" as="targetPoint" />
            <Array as="points">
              <mxPoint x="360" y="500" />
            </Array>
          </mxGeometry>
        </mxCell>
        <mxCell id="7A8-02SXWjBYyT_56dJ7-16" value="" style="endArrow=none;html=1;rounded=0;entryX=0.989;entryY=0.688;entryDx=0;entryDy=0;entryPerimeter=0;fillColor=#008a00;strokeColor=#005700;" edge="1" parent="1" target="7A8-02SXWjBYyT_56dJ7-3">
          <mxGeometry width="50" height="50" relative="1" as="geometry">
            <mxPoint x="600" y="640" as="sourcePoint" />
            <mxPoint x="490" y="460" as="targetPoint" />
            <Array as="points">
              <mxPoint x="600" y="335" />
            </Array>
          </mxGeometry>
        </mxCell>
        <mxCell id="7A8-02SXWjBYyT_56dJ7-17" value="" style="endArrow=none;html=1;rounded=0;entryX=1;entryY=0.75;entryDx=0;entryDy=0;fillColor=#008a00;strokeColor=#005700;" edge="1" parent="1" target="7A8-02SXWjBYyT_56dJ7-4">
          <mxGeometry width="50" height="50" relative="1" as="geometry">
            <mxPoint x="640" y="640" as="sourcePoint" />
            <mxPoint x="490" y="460" as="targetPoint" />
            <Array as="points">
              <mxPoint x="640" y="500" />
            </Array>
          </mxGeometry>
        </mxCell>
        <mxCell id="7A8-02SXWjBYyT_56dJ7-18" value="" style="endArrow=none;html=1;rounded=0;" edge="1" parent="1">
          <mxGeometry width="50" height="50" relative="1" as="geometry">
            <mxPoint x="120" y="520" as="sourcePoint" />
            <mxPoint x="120" y="280" as="targetPoint" />
          </mxGeometry>
        </mxCell>
        <mxCell id="7A8-02SXWjBYyT_56dJ7-19" value="" style="ellipse;shape=cloud;whiteSpace=wrap;html=1;" vertex="1" parent="1">
          <mxGeometry x="-70" y="330" width="120" height="80" as="geometry" />
        </mxCell>
        <mxCell id="7A8-02SXWjBYyT_56dJ7-20" value="" style="endArrow=classic;html=1;rounded=0;" edge="1" parent="1">
          <mxGeometry width="50" height="50" relative="1" as="geometry">
            <mxPoint x="60" y="360" as="sourcePoint" />
            <mxPoint x="110" y="360" as="targetPoint" />
          </mxGeometry>
        </mxCell>
        <mxCell id="7A8-02SXWjBYyT_56dJ7-21" value="" style="endArrow=classic;html=1;rounded=0;" edge="1" parent="1">
          <mxGeometry width="50" height="50" relative="1" as="geometry">
            <mxPoint x="60" y="400" as="sourcePoint" />
            <mxPoint x="110" y="400" as="targetPoint" />
          </mxGeometry>
        </mxCell>
        <mxCell id="7A8-02SXWjBYyT_56dJ7-22" value="10.10.10.0/24" style="text;html=1;align=center;verticalAlign=middle;whiteSpace=wrap;rounded=0;" vertex="1" parent="1">
          <mxGeometry x="720" y="610" width="60" height="30" as="geometry" />
        </mxCell>
        <mxCell id="7A8-02SXWjBYyT_56dJ7-23" value="103.124.95.0/24" style="text;html=1;align=center;verticalAlign=middle;whiteSpace=wrap;rounded=0;" vertex="1" parent="1">
          <mxGeometry x="710" y="130" width="60" height="30" as="geometry" />
        </mxCell>
      </root>
    </mxGraphModel>
  </diagram>
</mxfile>
